<svg width="56" height="56" viewBox="0 0 56 56" fill="none" xmlns="http://www.w3.org/2000/svg">
<rect width="56" height="56" rx="28" fill="#837EDE"/>
<path fill-rule="evenodd" clip-rule="evenodd" d="M21.5001 16C20.4488 16 19.5707 16 18.8753 16.0937C18.1401 16.192 17.4763 16.4098 16.9436 16.9424C16.4098 17.4763 16.192 18.1401 16.0937 18.8741C16 19.5707 16 20.4487 16 21.5V21.6218C16 22.6731 16 23.5511 16.0937 24.2465C16.192 24.9817 16.4098 25.6455 16.9424 26.1782C17.4763 26.7121 18.1401 26.9298 18.8741 27.0282C19.5707 27.1218 20.4488 27.1218 21.5001 27.1218H21.6219C22.6732 27.1218 23.5512 27.1218 24.2466 27.0282C24.9819 26.9298 25.6457 26.7121 26.1783 26.1782C26.7122 25.6455 26.93 24.9817 27.0283 24.2465C27.122 23.5511 27.122 22.6731 27.122 21.6218V21.5C27.122 20.4487 27.122 19.5707 27.0283 18.8753C26.93 18.1401 26.7122 17.4763 26.1783 16.9436C25.6457 16.4098 24.9819 16.192 24.2466 16.0937C23.5512 16 22.6732 16 21.6219 16H21.5001ZM18.1846 18.1846C18.3368 18.0324 18.5686 17.9071 19.1095 17.8333C19.6738 17.7584 20.4324 17.7561 21.561 17.7561C22.6896 17.7561 23.4482 17.7584 24.0137 17.8345C24.5534 17.9071 24.7852 18.0324 24.9374 18.1857C25.0896 18.3379 25.2148 18.5686 25.2886 19.1083C25.3635 19.6737 25.3659 20.4323 25.3659 21.5609C25.3659 22.6895 25.3635 23.4481 25.2874 24.0136C25.2148 24.5533 25.0896 24.7851 24.9362 24.9373C24.784 25.0895 24.5534 25.2147 24.0137 25.2885C23.4482 25.3634 22.6896 25.3657 21.561 25.3657C20.4324 25.3657 19.6738 25.3634 19.1083 25.2873C18.5686 25.2147 18.3368 25.0895 18.1846 24.9361C18.0324 24.7839 17.9071 24.5533 17.8334 24.0136C17.7584 23.4481 17.7561 22.6895 17.7561 21.5609C17.7561 20.4323 17.7584 19.6737 17.8345 19.1083C17.9071 18.5686 18.0324 18.3368 18.1858 18.1846H18.1846Z" fill="white"/>
<path d="M35.3169 18.049C35.3169 17.8161 35.2244 17.5928 35.0597 17.4281C34.895 17.2635 34.6717 17.171 34.4388 17.171C34.206 17.171 33.9826 17.2635 33.818 17.4281C33.6533 17.5928 33.5608 17.8161 33.5608 18.049V20.6831H30.9266C30.6938 20.6831 30.4704 20.7756 30.3058 20.9403C30.1411 21.105 30.0486 21.3283 30.0486 21.5612C30.0486 21.794 30.1411 22.0174 30.3058 22.182C30.4704 22.3467 30.6938 22.4392 30.9266 22.4392H33.5608V25.0733C33.5608 25.3062 33.6533 25.5295 33.818 25.6942C33.9826 25.8589 34.206 25.9514 34.4388 25.9514C34.6717 25.9514 34.895 25.8589 35.0597 25.6942C35.2244 25.5295 35.3169 25.3062 35.3169 25.0733V22.4392H37.951C38.1839 22.4392 38.4072 22.3467 38.5719 22.182C38.7366 22.0174 38.8291 21.794 38.8291 21.5612C38.8291 21.3283 38.7366 21.105 38.5719 20.9403C38.4072 20.7756 38.1839 20.6831 37.951 20.6831H35.3169V18.049Z" fill="white"/>
<path fill-rule="evenodd" clip-rule="evenodd" d="M34.3781 28.878H34.4999C35.5524 28.878 36.4293 28.878 37.1247 28.9717C37.8599 29.07 38.5237 29.2878 39.0564 29.8216C39.5902 30.3543 39.808 31.0181 39.9063 31.7533C40 32.4487 40 33.3256 40 34.378V34.4998C40 35.5523 40 36.4291 39.9063 37.1245C39.808 37.8598 39.5902 38.5236 39.0564 39.0562C38.5237 39.5901 37.8599 39.8078 37.1247 39.9062C36.4293 39.9998 35.5524 39.9998 34.4999 39.9998H34.3781C33.3268 39.9998 32.4488 39.9998 31.7534 39.9062C31.0181 39.8078 30.3543 39.5901 29.8217 39.0562C29.2878 38.5236 29.07 37.8598 28.9717 37.1245C28.878 36.4291 28.878 35.5523 28.878 34.4998V34.378C28.878 33.3256 28.878 32.4487 28.9717 31.7533C29.07 31.0181 29.2878 30.3543 29.8217 29.8216C30.3543 29.2878 31.0181 29.07 31.7534 28.9717C32.4488 28.878 33.3257 28.878 34.3781 28.878ZM31.9863 30.7114C31.4466 30.7851 31.2148 30.9104 31.0626 31.0626C30.9104 31.2148 30.7852 31.4466 30.7114 31.9874C30.6365 32.5517 30.6341 33.3103 30.6341 34.4389C30.6341 35.5675 30.6365 36.3261 30.7114 36.8916C30.7852 37.4313 30.9104 37.6631 31.0626 37.8153C31.2148 37.9675 31.4466 38.0927 31.9875 38.1665C32.5518 38.2414 33.3104 38.2437 34.439 38.2437C35.5676 38.2437 36.3262 38.2414 36.8917 38.1653C37.4314 38.0927 37.6632 37.9675 37.8154 37.8141C37.9676 37.6619 38.0929 37.4313 38.1666 36.8916C38.2416 36.3261 38.2439 35.5675 38.2439 34.4389C38.2439 33.3103 38.2416 32.5517 38.1655 31.9863C38.0929 31.4466 37.9676 31.2148 37.8142 31.0626C37.662 30.9104 37.4314 30.7851 36.8917 30.7114C36.3262 30.6364 35.5676 30.6341 34.439 30.6341C33.3104 30.6341 32.5518 30.6364 31.9863 30.7114ZM21.5001 28.878C20.4488 28.878 19.5707 28.878 18.8753 28.9717C18.1401 29.07 17.4763 29.2878 16.9436 29.8216C16.4098 30.3543 16.192 31.0181 16.0937 31.7533C16 32.4487 16 33.3256 16 34.378V34.4998C16 35.5523 16 36.4291 16.0937 37.1245C16.192 37.8598 16.4098 38.5236 16.9424 39.0562C17.4763 39.5901 18.1401 39.8078 18.8741 39.9062C19.5707 39.9998 20.4488 39.9998 21.5001 39.9998H21.6219C22.6732 39.9998 23.5512 39.9998 24.2466 39.9062C24.9819 39.8078 25.6457 39.5901 26.1783 39.0562C26.7122 38.5236 26.93 37.8598 27.0283 37.1245C27.122 36.4291 27.122 35.5523 27.122 34.4998V34.378C27.122 33.3256 27.122 32.4487 27.0283 31.7533C26.93 31.0181 26.7122 30.3543 26.1783 29.8216C25.6457 29.2878 24.9819 29.07 24.2466 28.9717C23.5512 28.878 22.6732 28.878 21.6219 28.878H21.5001ZM18.1846 31.0626C18.3368 30.9104 18.5686 30.7851 19.1095 30.7114C19.6738 30.6364 20.4324 30.6341 21.561 30.6341C22.6896 30.6341 23.4482 30.6364 24.0137 30.7114C24.5534 30.7851 24.7852 30.9104 24.9374 31.0626C25.0896 31.2148 25.2148 31.4466 25.2886 31.9874C25.3635 32.5517 25.3659 33.3103 25.3659 34.4389C25.3659 35.5675 25.3635 36.3261 25.2874 36.8916C25.2148 37.4313 25.0896 37.6631 24.9362 37.8153C24.784 37.9675 24.5534 38.0927 24.0137 38.1665C23.4482 38.2414 22.6896 38.2437 21.561 38.2437C20.4324 38.2437 19.6738 38.2414 19.1083 38.1653C18.5686 38.0927 18.3368 37.9675 18.1846 37.8141C18.0324 37.6619 17.9071 37.4313 17.8334 36.8916C17.7584 36.3261 17.7561 35.5675 17.7561 34.4389C17.7561 33.3103 17.7584 32.5517 17.8345 31.9863C17.9071 31.4466 18.0324 31.2148 18.1858 31.0626H18.1846Z" fill="white"/>
</svg>
