<svg width="56" height="56" viewBox="0 0 56 56" fill="none" xmlns="http://www.w3.org/2000/svg">
<rect width="56" height="56" rx="28" fill="#F6CB73"/>
<path d="M21 17.7V21.1H17.6667V17.7H21ZM16 16V22.8H22.6667V16H16ZM29.3333 20.25V23.65H26V20.25H29.3333ZM24.3333 18.55V25.35H31V18.55H24.3333ZM21 27.9V31.3H17.6667V27.9H21ZM16 26.2V33H22.6667V26.2H16Z" fill="white"/>
<path d="M33.2 23V28.1H28.1V33.2H23V40H40V23H33.2ZM29.8 29.8H33.2V33.2H29.8V29.8ZM28.1 38.3H24.7V34.9H28.1V38.3ZM33.2 38.3H29.8V34.9H33.2V38.3ZM38.3 38.3H34.9V34.9H38.3V38.3ZM38.3 33.2H34.9V29.8H38.3V33.2ZM34.9 28.1V24.7H38.3V28.1H34.9Z" fill="white"/>
</svg>
