<svg width="32" height="32" viewBox="0 0 32 32" fill="none" xmlns="http://www.w3.org/2000/svg">
<path d="M16 4C17.1016 4 18.1641 4.14062 19.1875 4.42188C20.2109 4.70312 21.168 5.10547 22.0586 5.62891C22.9492 6.15234 23.7578 6.77734 24.4844 7.50391C25.2109 8.23047 25.8359 9.04297 26.3594 9.94141C26.8828 10.8398 27.2852 11.7969 27.5664 12.8125C27.8477 13.8281 27.9922 14.8906 28 16C28 17.1016 27.8594 18.1641 27.5781 19.1875C27.2969 20.2109 26.8945 21.168 26.3711 22.0586C25.8477 22.9492 25.2227 23.7578 24.4961 24.4844C23.7695 25.2109 22.957 25.8359 22.0586 26.3594C21.1602 26.8828 20.2031 27.2852 19.1875 27.5664C18.1719 27.8477 17.1094 27.9922 16 28C14.8984 28 13.8359 27.8594 12.8125 27.5781C11.7891 27.2969 10.832 26.8945 9.94141 26.3711C9.05078 25.8477 8.24219 25.2227 7.51562 24.4961C6.78906 23.7695 6.16406 22.957 5.64062 22.0586C5.11719 21.1602 4.71484 20.207 4.43359 19.1992C4.15234 18.1914 4.00781 17.125 4 16C4 14.8984 4.14062 13.8359 4.42188 12.8125C4.70312 11.7891 5.10547 10.832 5.62891 9.94141C6.15234 9.05078 6.77734 8.24219 7.50391 7.51562C8.23047 6.78906 9.04297 6.16406 9.94141 5.64062C10.8398 5.11719 11.793 4.71484 12.8008 4.43359C13.8086 4.15234 14.875 4.00781 16 4ZM16 26.5C16.9609 26.5 17.8867 26.375 18.7773 26.125C19.668 25.875 20.5039 25.5234 21.2852 25.0703C22.0664 24.6172 22.7773 24.0664 23.418 23.418C24.0586 22.7695 24.6055 22.0625 25.0586 21.2969C25.5117 20.5312 25.8672 19.6953 26.125 18.7891C26.3828 17.8828 26.5078 16.9531 26.5 16C26.5 15.0391 26.375 14.1133 26.125 13.2227C25.875 12.332 25.5234 11.4961 25.0703 10.7148C24.6172 9.93359 24.0664 9.22266 23.418 8.58203C22.7695 7.94141 22.0625 7.39453 21.2969 6.94141C20.5312 6.48828 19.6953 6.13281 18.7891 5.875C17.8828 5.61719 16.9531 5.49219 16 5.5C15.0391 5.5 14.1133 5.625 13.2227 5.875C12.332 6.125 11.4961 6.47656 10.7148 6.92969C9.93359 7.38281 9.22266 7.93359 8.58203 8.58203C7.94141 9.23047 7.39453 9.9375 6.94141 10.7031C6.48828 11.4688 6.13281 12.3047 5.875 13.2109C5.61719 14.1172 5.49219 15.0469 5.5 16C5.5 16.9609 5.625 17.8867 5.875 18.7773C6.125 19.668 6.47656 20.5039 6.92969 21.2852C7.38281 22.0664 7.93359 22.7773 8.58203 23.418C9.23047 24.0586 9.9375 24.6055 10.7031 25.0586C11.4688 25.5117 12.3047 25.8672 13.2109 26.125C14.1172 26.3828 15.0469 26.5078 16 26.5ZM22.9961 16.1875L23.5586 14.5H24.4375L23.4414 17.5H22.5625L22 15.8125L21.4375 17.5H20.5586L19.5625 14.5H20.4414L21.0039 16.1875L21.5664 14.5H22.4336L22.9961 16.1875ZM17.5586 14.5H18.4375L17.4414 17.5H16.5625L16 15.8125L15.4375 17.5H14.5586L13.5625 14.5H14.4414L15.0039 16.1875L15.5664 14.5H16.4336L16.9961 16.1875L17.5586 14.5ZM11.5586 14.5H12.4375L11.4414 17.5H10.5625L10 15.8125L9.4375 17.5H8.55859L7.5625 14.5H8.44141L9.00391 16.1875L9.56641 14.5H10.4336L10.9961 16.1875L11.5586 14.5Z" fill="white"/>
</svg>
