<svg width="56" height="56" viewBox="0 0 56 56" fill="none" xmlns="http://www.w3.org/2000/svg">
<rect width="56" height="56" rx="28" fill="#F6CB73"/>
<path d="M38.667 17H17.3334C16.9797 17 16.6406 17.1363 16.3905 17.379C16.1405 17.6217 16 17.9509 16 18.2941V22.1765C16 22.5197 16.1405 22.8489 16.3905 23.0915C16.6406 23.3342 16.9797 23.4706 17.3334 23.4706C17.687 23.4706 18.0261 23.3342 18.2762 23.0915C18.5262 22.8489 18.6667 22.5197 18.6667 22.1765V19.5882H26.6668V36.4118H24.0001C23.6465 36.4118 23.3073 36.5481 23.0573 36.7908C22.8072 37.0335 22.6668 37.3627 22.6668 37.7059C22.6668 38.0491 22.8072 38.3783 23.0573 38.621C23.3073 38.8637 23.6465 39 24.0001 39H32.0002C32.3539 39 32.693 38.8637 32.9431 38.621C33.1931 38.3783 33.3336 38.0491 33.3336 37.7059C33.3336 37.3627 33.1931 37.0335 32.9431 36.7908C32.693 36.5481 32.3539 36.4118 32.0002 36.4118H29.3335V19.5882H37.3336V22.1765C37.3336 22.5197 37.4741 22.8489 37.7242 23.0915C37.9742 23.3342 38.3134 23.4706 38.667 23.4706C39.0206 23.4706 39.3598 23.3342 39.6098 23.0915C39.8599 22.8489 40.0003 22.5197 40.0003 22.1765V18.2941C40.0003 17.9509 39.8599 17.6217 39.6098 17.379C39.3598 17.1363 39.0206 17 38.667 17Z" fill="white"/>
</svg>
