<svg width="172" height="30" viewBox="0 0 172 30" fill="none" xmlns="http://www.w3.org/2000/svg">
<rect width="172" height="30" rx="15" fill="#F6CB73"/>
<path d="M14.3402 20C14.0882 20 13.8922 19.9347 13.7522 19.804C13.6215 19.664 13.5562 19.468 13.5562 19.216V10.914C13.5562 10.662 13.6215 10.4707 13.7522 10.34C13.8922 10.2 14.0882 10.13 14.3402 10.13H19.7022C19.8982 10.13 20.0475 10.1813 20.1502 10.284C20.2529 10.3773 20.3042 10.5173 20.3042 10.704C20.3042 10.9 20.2529 11.0493 20.1502 11.152C20.0475 11.2547 19.8982 11.306 19.7022 11.306H14.9562V14.372H17.8402C18.8855 14.372 19.6975 14.61 20.2762 15.086C20.8549 15.5527 21.1442 16.248 21.1442 17.172C21.1442 18.096 20.8549 18.8007 20.2762 19.286C19.6975 19.762 18.8855 20 17.8402 20H14.3402ZM14.9562 18.824H17.6722C18.3722 18.824 18.8902 18.6887 19.2262 18.418C19.5622 18.1473 19.7302 17.7367 19.7302 17.186C19.7302 16.626 19.5622 16.2153 19.2262 15.954C18.8902 15.6833 18.3722 15.548 17.6722 15.548H14.9562V18.824ZM26.0164 20.126C25.2698 20.126 24.6258 19.986 24.0844 19.706C23.5524 19.4167 23.1371 19.0107 22.8384 18.488C22.5491 17.956 22.4044 17.326 22.4044 16.598C22.4044 15.8887 22.5491 15.268 22.8384 14.736C23.1278 14.204 23.5244 13.7887 24.0284 13.49C24.5324 13.1913 25.1064 13.042 25.7504 13.042C26.2264 13.042 26.6511 13.1213 27.0244 13.28C27.3978 13.4293 27.7151 13.6533 27.9764 13.952C28.2471 14.2413 28.4478 14.596 28.5784 15.016C28.7184 15.436 28.7884 15.9073 28.7884 16.43C28.7884 16.5887 28.7418 16.71 28.6484 16.794C28.5551 16.8687 28.4151 16.906 28.2284 16.906H23.5244V16.038H27.8364L27.5984 16.234C27.5984 15.7673 27.5284 15.3707 27.3884 15.044C27.2578 14.7173 27.0571 14.47 26.7864 14.302C26.5251 14.1247 26.1984 14.036 25.8064 14.036C25.3678 14.036 24.9944 14.1387 24.6864 14.344C24.3878 14.5493 24.1591 14.834 24.0004 15.198C23.8418 15.562 23.7624 15.9867 23.7624 16.472V16.556C23.7624 17.3773 23.9538 17.998 24.3364 18.418C24.7284 18.8287 25.2931 19.034 26.0304 19.034C26.3104 19.034 26.6044 18.9967 26.9124 18.922C27.2298 18.8473 27.5284 18.7213 27.8084 18.544C27.9671 18.4507 28.1071 18.4087 28.2284 18.418C28.3591 18.4273 28.4618 18.4693 28.5364 18.544C28.6204 18.6187 28.6718 18.712 28.6904 18.824C28.7091 18.936 28.6904 19.0527 28.6344 19.174C28.5784 19.286 28.4804 19.3887 28.3404 19.482C28.0231 19.6967 27.6544 19.86 27.2344 19.972C26.8144 20.0747 26.4084 20.126 26.0164 20.126ZM33.4903 20.126C32.7903 20.126 32.1837 19.9813 31.6703 19.692C31.1663 19.3933 30.7743 18.978 30.4943 18.446C30.2143 17.9047 30.0743 17.27 30.0743 16.542C30.0743 16.0007 30.1537 15.5153 30.3123 15.086C30.471 14.6473 30.695 14.2787 30.9843 13.98C31.283 13.6813 31.6423 13.4527 32.0623 13.294C32.4917 13.126 32.9677 13.042 33.4903 13.042C33.817 13.042 34.1577 13.0933 34.5123 13.196C34.8763 13.2893 35.2123 13.448 35.5203 13.672C35.6417 13.7467 35.7163 13.84 35.7443 13.952C35.7817 14.0547 35.7863 14.162 35.7583 14.274C35.7397 14.386 35.6883 14.484 35.6043 14.568C35.5297 14.6427 35.4363 14.6893 35.3243 14.708C35.2123 14.7173 35.091 14.6847 34.9603 14.61C34.7363 14.4513 34.5077 14.3393 34.2743 14.274C34.041 14.1993 33.817 14.162 33.6023 14.162C33.2663 14.162 32.9677 14.218 32.7063 14.33C32.4543 14.4327 32.2397 14.5867 32.0623 14.792C31.885 14.988 31.7497 15.2353 31.6563 15.534C31.5723 15.8327 31.5303 16.1733 31.5303 16.556C31.5303 17.3213 31.7077 17.9233 32.0623 18.362C32.4263 18.7913 32.9397 19.006 33.6023 19.006C33.817 19.006 34.041 18.9733 34.2743 18.908C34.5077 18.8427 34.7363 18.7307 34.9603 18.572C35.091 18.4973 35.2123 18.4693 35.3243 18.488C35.4363 18.5067 35.525 18.558 35.5903 18.642C35.665 18.7167 35.7117 18.81 35.7303 18.922C35.7583 19.0247 35.7537 19.132 35.7163 19.244C35.679 19.356 35.5997 19.4493 35.4783 19.524C35.1797 19.7387 34.853 19.8927 34.4983 19.986C34.153 20.0793 33.817 20.126 33.4903 20.126ZM37.8796 20.098C37.6556 20.098 37.4782 20.0373 37.3476 19.916C37.2262 19.7853 37.1656 19.608 37.1656 19.384V13.966C37.1656 13.714 37.2309 13.518 37.3616 13.378C37.5016 13.238 37.7022 13.168 37.9636 13.168H42.5556C42.8076 13.168 43.0036 13.238 43.1436 13.378C43.2836 13.518 43.3536 13.714 43.3536 13.966V19.384C43.3536 19.608 43.2882 19.7853 43.1576 19.916C43.0362 20.0373 42.8636 20.098 42.6396 20.098C42.4062 20.098 42.2289 20.0373 42.1076 19.916C41.9956 19.7853 41.9396 19.608 41.9396 19.384V14.302H38.5796V19.384C38.5796 19.608 38.5189 19.7853 38.3976 19.916C38.2856 20.0373 38.1129 20.098 37.8796 20.098ZM50.8124 20.098C50.5884 20.098 50.4157 20.0373 50.2944 19.916C50.1731 19.7853 50.1124 19.608 50.1124 19.384V14.302H47.6344V15.128C47.6344 15.8187 47.5971 16.4347 47.5224 16.976C47.4477 17.508 47.3311 17.97 47.1724 18.362C47.0137 18.754 46.8084 19.0853 46.5564 19.356C46.3044 19.6267 45.9964 19.846 45.6324 20.014C45.4737 20.0793 45.3291 20.098 45.1984 20.07C45.0677 20.042 44.9557 19.986 44.8624 19.902C44.7784 19.8087 44.7224 19.7013 44.6944 19.58C44.6664 19.4587 44.6804 19.3373 44.7364 19.216C44.7924 19.0853 44.8951 18.978 45.0444 18.894C45.2964 18.754 45.5017 18.5767 45.6604 18.362C45.8284 18.1473 45.9591 17.8907 46.0524 17.592C46.1457 17.284 46.2111 16.9247 46.2484 16.514C46.2951 16.1033 46.3184 15.6273 46.3184 15.086V13.966C46.3184 13.714 46.3837 13.518 46.5144 13.378C46.6544 13.238 46.8551 13.168 47.1164 13.168H50.7284C50.9804 13.168 51.1764 13.238 51.3164 13.378C51.4564 13.518 51.5264 13.714 51.5264 13.966V19.384C51.5264 19.608 51.4611 19.7853 51.3304 19.916C51.2091 20.0373 51.0364 20.098 50.8124 20.098ZM55.8518 20.126C55.3758 20.126 54.9465 20.0327 54.5638 19.846C54.1905 19.6593 53.8965 19.4073 53.6818 19.09C53.4672 18.7727 53.3598 18.4133 53.3598 18.012C53.3598 17.508 53.4858 17.1113 53.7378 16.822C53.9992 16.5233 54.4238 16.3133 55.0118 16.192C55.6092 16.0613 56.4118 15.996 57.4198 15.996H58.0778V16.864H57.4338C56.7618 16.864 56.2298 16.8967 55.8378 16.962C55.4458 17.0273 55.1658 17.1393 54.9978 17.298C54.8392 17.4473 54.7598 17.6573 54.7598 17.928C54.7598 18.2827 54.8812 18.572 55.1238 18.796C55.3665 19.0107 55.7025 19.118 56.1318 19.118C56.4772 19.118 56.7805 19.0387 57.0418 18.88C57.3032 18.712 57.5085 18.488 57.6578 18.208C57.8165 17.928 57.8958 17.606 57.8958 17.242V15.632C57.8958 15.1 57.7838 14.7173 57.5598 14.484C57.3358 14.2507 56.9672 14.134 56.4538 14.134C56.1552 14.134 55.8425 14.1713 55.5158 14.246C55.1985 14.3207 54.8672 14.4467 54.5218 14.624C54.3632 14.6987 54.2278 14.722 54.1158 14.694C54.0038 14.666 53.9152 14.6053 53.8498 14.512C53.7845 14.4093 53.7472 14.302 53.7378 14.19C53.7378 14.0687 53.7658 13.952 53.8218 13.84C53.8872 13.728 53.9945 13.644 54.1438 13.588C54.5545 13.392 54.9605 13.252 55.3618 13.168C55.7632 13.084 56.1412 13.042 56.4958 13.042C57.1212 13.042 57.6345 13.14 58.0358 13.336C58.4465 13.532 58.7498 13.8307 58.9458 14.232C59.1418 14.6333 59.2398 15.1513 59.2398 15.786V19.384C59.2398 19.608 59.1838 19.7853 59.0718 19.916C58.9598 20.0373 58.7965 20.098 58.5818 20.098C58.3765 20.098 58.2132 20.0373 58.0918 19.916C57.9705 19.7853 57.9098 19.608 57.9098 19.384V18.474H58.0358C57.9612 18.8193 57.8212 19.118 57.6158 19.37C57.4198 19.6127 57.1725 19.7993 56.8738 19.93C56.5752 20.0607 56.2345 20.126 55.8518 20.126ZM63.4794 20.098C63.2554 20.098 63.0781 20.0373 62.9474 19.916C62.8261 19.7853 62.7654 19.608 62.7654 19.384V14.302H60.8614C60.4508 14.302 60.2454 14.1107 60.2454 13.728C60.2454 13.56 60.3014 13.4247 60.4134 13.322C60.5254 13.2193 60.6748 13.168 60.8614 13.168H66.0834C66.4941 13.168 66.6994 13.3547 66.6994 13.728C66.6994 13.9147 66.6434 14.0593 66.5314 14.162C66.4288 14.2553 66.2794 14.302 66.0834 14.302H64.1794V19.384C64.1794 19.608 64.1188 19.7853 63.9974 19.916C63.8854 20.0373 63.7128 20.098 63.4794 20.098ZM68.4499 20.098C68.2259 20.098 68.0485 20.0373 67.9179 19.916C67.7965 19.7853 67.7359 19.608 67.7359 19.384V13.784C67.7359 13.5413 67.7965 13.364 67.9179 13.252C68.0485 13.1307 68.2259 13.07 68.4499 13.07C68.6739 13.07 68.8465 13.1307 68.9679 13.252C69.0892 13.364 69.1499 13.5413 69.1499 13.784V15.926H72.5519V13.784C72.5519 13.5413 72.6079 13.364 72.7199 13.252C72.8412 13.1307 73.0185 13.07 73.2519 13.07C73.4759 13.07 73.6485 13.1307 73.7699 13.252C73.9005 13.364 73.9659 13.5413 73.9659 13.784V19.384C73.9659 19.608 73.9005 19.7853 73.7699 19.916C73.6485 20.0373 73.4759 20.098 73.2519 20.098C73.0185 20.098 72.8412 20.0373 72.7199 19.916C72.6079 19.7853 72.5519 19.608 72.5519 19.384V17.046H69.1499V19.384C69.1499 19.608 69.0892 19.7853 68.9679 19.916C68.8559 20.0373 68.6832 20.098 68.4499 20.098ZM76.7897 20C76.5564 20 76.3791 19.9393 76.2577 19.818C76.1364 19.6873 76.0757 19.51 76.0757 19.286V13.784C76.0757 13.5413 76.1364 13.364 76.2577 13.252C76.3884 13.1307 76.5657 13.07 76.7897 13.07C77.0137 13.07 77.1864 13.1307 77.3077 13.252C77.4291 13.364 77.4897 13.5413 77.4897 13.784V15.534H79.4357C80.3131 15.534 80.9804 15.7253 81.4377 16.108C81.8951 16.4813 82.1237 17.0273 82.1237 17.746C82.1237 18.2033 82.0164 18.6047 81.8017 18.95C81.5871 19.286 81.2791 19.5473 80.8777 19.734C80.4764 19.9113 79.9957 20 79.4357 20H76.7897ZM77.4897 19.034H79.2537C79.7391 19.034 80.1171 18.9313 80.3877 18.726C80.6584 18.5113 80.7937 18.1847 80.7937 17.746C80.7937 17.3167 80.6584 17.004 80.3877 16.808C80.1171 16.6027 79.7391 16.5 79.2537 16.5H77.4897V19.034ZM83.7477 20.098C83.5237 20.098 83.3511 20.0373 83.2297 19.916C83.1084 19.7853 83.0477 19.608 83.0477 19.384V13.784C83.0477 13.5413 83.1084 13.364 83.2297 13.252C83.3511 13.1307 83.5237 13.07 83.7477 13.07C83.9717 13.07 84.1444 13.1307 84.2657 13.252C84.3964 13.364 84.4617 13.5413 84.4617 13.784V19.384C84.4617 19.86 84.2237 20.098 83.7477 20.098ZM87.2474 20.098C87.1074 20.098 86.9861 20.07 86.8834 20.014C86.7901 19.9673 86.7154 19.888 86.6594 19.776C86.6127 19.664 86.5894 19.5193 86.5894 19.342V13.756C86.5894 13.532 86.6454 13.364 86.7574 13.252C86.8694 13.1307 87.0281 13.07 87.2334 13.07C87.4387 13.07 87.5974 13.1307 87.7094 13.252C87.8214 13.364 87.8774 13.532 87.8774 13.756V18.6H87.5134L91.3074 13.532C91.4007 13.4107 91.5081 13.3033 91.6294 13.21C91.7507 13.1167 91.9141 13.07 92.1194 13.07C92.2594 13.07 92.3761 13.098 92.4694 13.154C92.5627 13.2007 92.6327 13.28 92.6794 13.392C92.7354 13.504 92.7634 13.6487 92.7634 13.826V19.412C92.7634 19.6267 92.7074 19.7947 92.5954 19.916C92.4927 20.0373 92.3387 20.098 92.1334 20.098C91.9187 20.098 91.7554 20.0373 91.6434 19.916C91.5314 19.7947 91.4754 19.6267 91.4754 19.412V14.568H91.8534L88.0454 19.65C87.9614 19.762 87.8587 19.8647 87.7374 19.958C87.6254 20.0513 87.4621 20.098 87.2474 20.098ZM89.6834 12.3C89.1514 12.3 88.6707 12.174 88.2414 11.922C87.8214 11.6607 87.5181 11.278 87.3314 10.774C87.2754 10.6153 87.2661 10.4893 87.3034 10.396C87.3501 10.2933 87.4341 10.2187 87.5554 10.172C87.6767 10.1347 87.7841 10.1393 87.8774 10.186C87.9707 10.2327 88.0547 10.3307 88.1294 10.48C88.2881 10.8067 88.4934 11.054 88.7454 11.222C89.0067 11.39 89.3194 11.474 89.6834 11.474C90.0474 11.474 90.3554 11.39 90.6074 11.222C90.8687 11.054 91.0787 10.8067 91.2374 10.48C91.3121 10.3307 91.3961 10.2327 91.4894 10.186C91.5827 10.1393 91.6901 10.1347 91.8114 10.172C91.9327 10.2187 92.0121 10.2933 92.0494 10.396C92.0961 10.4893 92.0867 10.6153 92.0214 10.774C91.7974 11.278 91.4847 11.6607 91.0834 11.922C90.6821 12.174 90.2154 12.3 89.6834 12.3ZM100.778 20.126C100.302 20.126 99.8723 20.0327 99.4896 19.846C99.1163 19.6593 98.8223 19.4073 98.6076 19.09C98.393 18.7727 98.2856 18.4133 98.2856 18.012C98.2856 17.508 98.4116 17.1113 98.6636 16.822C98.925 16.5233 99.3496 16.3133 99.9376 16.192C100.535 16.0613 101.338 15.996 102.346 15.996H103.004V16.864H102.36C101.688 16.864 101.156 16.8967 100.764 16.962C100.372 17.0273 100.092 17.1393 99.9236 17.298C99.765 17.4473 99.6856 17.6573 99.6856 17.928C99.6856 18.2827 99.807 18.572 100.05 18.796C100.292 19.0107 100.628 19.118 101.058 19.118C101.403 19.118 101.706 19.0387 101.968 18.88C102.229 18.712 102.434 18.488 102.584 18.208C102.742 17.928 102.822 17.606 102.822 17.242V15.632C102.822 15.1 102.71 14.7173 102.486 14.484C102.262 14.2507 101.893 14.134 101.38 14.134C101.081 14.134 100.768 14.1713 100.442 14.246C100.124 14.3207 99.793 14.4467 99.4476 14.624C99.289 14.6987 99.1536 14.722 99.0416 14.694C98.9296 14.666 98.841 14.6053 98.7756 14.512C98.7103 14.4093 98.673 14.302 98.6636 14.19C98.6636 14.0687 98.6916 13.952 98.7476 13.84C98.813 13.728 98.9203 13.644 99.0696 13.588C99.4803 13.392 99.8863 13.252 100.288 13.168C100.689 13.084 101.067 13.042 101.422 13.042C102.047 13.042 102.56 13.14 102.962 13.336C103.372 13.532 103.676 13.8307 103.872 14.232C104.068 14.6333 104.166 15.1513 104.166 15.786V19.384C104.166 19.608 104.11 19.7853 103.998 19.916C103.886 20.0373 103.722 20.098 103.508 20.098C103.302 20.098 103.139 20.0373 103.018 19.916C102.896 19.7853 102.836 19.608 102.836 19.384V18.474H102.962C102.887 18.8193 102.747 19.118 102.542 19.37C102.346 19.6127 102.098 19.7993 101.8 19.93C101.501 20.0607 101.16 20.126 100.778 20.126ZM107.887 22.618C107.719 22.618 107.579 22.5713 107.467 22.478C107.365 22.394 107.304 22.2773 107.285 22.128C107.276 21.988 107.304 21.834 107.369 21.666L108.321 19.524V20.126L105.703 14.036C105.638 13.868 105.615 13.7093 105.633 13.56C105.652 13.4107 105.722 13.294 105.843 13.21C105.965 13.1167 106.128 13.07 106.333 13.07C106.511 13.07 106.651 13.112 106.753 13.196C106.856 13.28 106.949 13.4247 107.033 13.63L109.147 18.852H108.755L110.897 13.63C110.981 13.4153 111.079 13.2707 111.191 13.196C111.303 13.112 111.457 13.07 111.653 13.07C111.821 13.07 111.952 13.1167 112.045 13.21C112.148 13.294 112.209 13.4107 112.227 13.56C112.255 13.7 112.232 13.854 112.157 14.022L108.657 22.072C108.564 22.2867 108.457 22.4313 108.335 22.506C108.223 22.5807 108.074 22.618 107.887 22.618ZM113.425 21.918C113.239 21.918 113.089 21.862 112.977 21.75C112.865 21.638 112.809 21.4793 112.809 21.274V19.552C112.809 19.104 113.038 18.88 113.495 18.88H114.209L113.369 19.174C113.621 18.838 113.822 18.4833 113.971 18.11C114.121 17.7367 114.228 17.312 114.293 16.836C114.368 16.3507 114.405 15.7907 114.405 15.156V13.966C114.405 13.714 114.471 13.518 114.601 13.378C114.741 13.238 114.942 13.168 115.203 13.168H118.661C118.913 13.168 119.109 13.238 119.249 13.378C119.389 13.518 119.459 13.714 119.459 13.966V19.538L118.801 18.88H119.879C120.094 18.88 120.257 18.936 120.369 19.048C120.491 19.16 120.551 19.328 120.551 19.552V21.274C120.551 21.7033 120.351 21.918 119.949 21.918C119.753 21.918 119.604 21.862 119.501 21.75C119.399 21.638 119.347 21.4793 119.347 21.274V20H114.027V21.274C114.027 21.7033 113.827 21.918 113.425 21.918ZM114.881 18.88H118.115V14.274H115.637V15.45C115.637 16.094 115.572 16.7193 115.441 17.326C115.311 17.9327 115.124 18.4507 114.881 18.88ZM122.617 20.098C122.477 20.098 122.355 20.07 122.253 20.014C122.159 19.9673 122.085 19.888 122.029 19.776C121.982 19.664 121.959 19.5193 121.959 19.342V13.756C121.959 13.532 122.015 13.364 122.127 13.252C122.239 13.1307 122.397 13.07 122.603 13.07C122.808 13.07 122.967 13.1307 123.079 13.252C123.191 13.364 123.247 13.532 123.247 13.756V18.6H122.883L126.677 13.532C126.77 13.4107 126.877 13.3033 126.999 13.21C127.12 13.1167 127.283 13.07 127.489 13.07C127.629 13.07 127.745 13.098 127.839 13.154C127.932 13.2007 128.002 13.28 128.049 13.392C128.105 13.504 128.133 13.6487 128.133 13.826V19.412C128.133 19.6267 128.077 19.7947 127.965 19.916C127.862 20.0373 127.708 20.098 127.503 20.098C127.288 20.098 127.125 20.0373 127.013 19.916C126.901 19.7947 126.845 19.6267 126.845 19.412V14.568H127.223L123.415 19.65C123.331 19.762 123.228 19.8647 123.107 19.958C122.995 20.0513 122.831 20.098 122.617 20.098ZM132.399 20.098C132.175 20.098 131.998 20.0373 131.867 19.916C131.746 19.7853 131.685 19.608 131.685 19.384V14.302H129.781C129.371 14.302 129.165 14.1107 129.165 13.728C129.165 13.56 129.221 13.4247 129.333 13.322C129.445 13.2193 129.595 13.168 129.781 13.168H135.003C135.414 13.168 135.619 13.3547 135.619 13.728C135.619 13.9147 135.563 14.0593 135.451 14.162C135.349 14.2553 135.199 14.302 135.003 14.302H133.099V19.384C133.099 19.608 133.039 19.7853 132.917 19.916C132.805 20.0373 132.633 20.098 132.399 20.098Z" fill="black"/>
<rect x="144" y="2" width="26" height="26" rx="13" fill="black"/>
<path d="M154.667 11.5H160.5V17.3333M160.5 11.5L153.5 18.5L160.5 11.5Z" stroke="#F6CB73" stroke-width="1.7" stroke-linecap="round" stroke-linejoin="round"/>
</svg>
