<svg width="364" height="87" viewBox="0 0 364 87" fill="none" xmlns="http://www.w3.org/2000/svg">
<path d="M1.834 27.098C1.62867 27.098 1.47 27.042 1.358 26.93C1.246 26.8087 1.19 26.6407 1.19 26.426V17.788C1.19 17.5733 1.246 17.41 1.358 17.298C1.47933 17.186 1.64267 17.13 1.848 17.13H5.18C6.244 17.13 7.06067 17.3913 7.63 17.914C8.20867 18.4367 8.498 19.1693 8.498 20.112C8.498 21.064 8.20867 21.8013 7.63 22.324C7.06067 22.8467 6.244 23.108 5.18 23.108H2.492V26.426C2.492 26.6407 2.436 26.8087 2.324 26.93C2.22133 27.042 2.058 27.098 1.834 27.098ZM2.492 22.058H5.012C5.74 22.058 6.286 21.8947 6.65 21.568C7.02333 21.232 7.21 20.7467 7.21 20.112C7.21 19.4773 7.02333 19.0013 6.65 18.684C6.286 18.3573 5.74 18.194 5.012 18.194H2.492V22.058ZM12.9236 27.126C12.1863 27.126 11.5516 26.986 11.0196 26.706C10.497 26.4167 10.091 26.0107 9.80164 25.488C9.51231 24.956 9.36764 24.3307 9.36764 23.612C9.36764 22.9027 9.50764 22.282 9.78764 21.75C10.077 21.218 10.469 20.8027 10.9636 20.504C11.4676 20.2053 12.0416 20.056 12.6856 20.056C13.143 20.056 13.5536 20.1353 13.9176 20.294C14.291 20.4433 14.6083 20.6627 14.8696 20.952C15.131 21.2413 15.327 21.596 15.4576 22.016C15.5976 22.4267 15.6676 22.8933 15.6676 23.416C15.6676 23.5653 15.621 23.682 15.5276 23.766C15.4436 23.8407 15.3176 23.878 15.1496 23.878H10.3616V23.066H14.8276L14.5896 23.262C14.5896 22.7767 14.515 22.366 14.3656 22.03C14.2256 21.6847 14.0156 21.4233 13.7356 21.246C13.465 21.0687 13.1243 20.98 12.7136 20.98C12.2656 20.98 11.883 21.0873 11.5656 21.302C11.2483 21.5073 11.0056 21.8013 10.8376 22.184C10.6696 22.5573 10.5856 22.9913 10.5856 23.486V23.57C10.5856 24.41 10.7863 25.0447 11.1876 25.474C11.589 25.9033 12.1676 26.118 12.9236 26.118C13.2223 26.118 13.5256 26.0807 13.8336 26.006C14.151 25.9313 14.4543 25.796 14.7436 25.6C14.8836 25.516 15.0096 25.4787 15.1216 25.488C15.243 25.488 15.341 25.5253 15.4156 25.6C15.4903 25.6653 15.537 25.7493 15.5556 25.852C15.5743 25.9453 15.5603 26.048 15.5136 26.16C15.467 26.272 15.3783 26.37 15.2476 26.454C14.9396 26.6687 14.571 26.8367 14.1416 26.958C13.7216 27.07 13.3156 27.126 12.9236 27.126ZM19.5725 27.126C19.1059 27.126 18.6812 27.0327 18.2985 26.846C17.9252 26.6593 17.6312 26.4073 17.4165 26.09C17.2112 25.7727 17.1085 25.418 17.1085 25.026C17.1085 24.522 17.2345 24.1253 17.4865 23.836C17.7385 23.5467 18.1632 23.3413 18.7605 23.22C19.3579 23.0893 20.1605 23.024 21.1685 23.024H21.8265V23.836H21.1965C20.4779 23.836 19.9085 23.8687 19.4885 23.934C19.0779 23.9993 18.7885 24.116 18.6205 24.284C18.4525 24.4427 18.3685 24.6667 18.3685 24.956C18.3685 25.32 18.4945 25.6187 18.7465 25.852C19.0079 26.0853 19.3625 26.202 19.8105 26.202C20.1652 26.202 20.4779 26.118 20.7485 25.95C21.0192 25.7727 21.2339 25.5393 21.3925 25.25C21.5512 24.9513 21.6305 24.6107 21.6305 24.228V22.618C21.6305 22.0673 21.5185 21.6707 21.2945 21.428C21.0705 21.176 20.6925 21.05 20.1605 21.05C19.8525 21.05 19.5352 21.092 19.2085 21.176C18.8819 21.26 18.5412 21.3907 18.1865 21.568C18.0465 21.6333 17.9252 21.6567 17.8225 21.638C17.7199 21.61 17.6359 21.554 17.5705 21.47C17.5145 21.3767 17.4819 21.2787 17.4725 21.176C17.4725 21.064 17.4959 20.9567 17.5425 20.854C17.5985 20.7513 17.6919 20.6767 17.8225 20.63C18.2332 20.4247 18.6392 20.28 19.0405 20.196C19.4512 20.1027 19.8339 20.056 20.1885 20.056C20.7952 20.056 21.2945 20.154 21.6865 20.35C22.0785 20.5367 22.3725 20.8307 22.5685 21.232C22.7645 21.624 22.8625 22.128 22.8625 22.744V26.44C22.8625 26.6547 22.8112 26.818 22.7085 26.93C22.6059 27.042 22.4565 27.098 22.2605 27.098C22.0739 27.098 21.9245 27.042 21.8125 26.93C21.7099 26.818 21.6585 26.6547 21.6585 26.44V25.446H21.7845C21.7099 25.7913 21.5699 26.09 21.3645 26.342C21.1592 26.594 20.9025 26.79 20.5945 26.93C20.2959 27.0607 19.9552 27.126 19.5725 27.126ZM30.3098 27.098C30.1044 27.098 29.9458 27.042 29.8338 26.93C29.7218 26.818 29.6658 26.6547 29.6658 26.44V21.204H27.0618V22.044C27.0618 22.7533 27.0244 23.3833 26.9498 23.934C26.8751 24.4753 26.7584 24.9467 26.5998 25.348C26.4504 25.7493 26.2498 26.0853 25.9978 26.356C25.7551 26.6267 25.4518 26.846 25.0878 27.014C24.9478 27.0793 24.8171 27.098 24.6958 27.07C24.5744 27.0513 24.4718 27 24.3878 26.916C24.3131 26.832 24.2618 26.734 24.2338 26.622C24.2151 26.51 24.2291 26.398 24.2758 26.286C24.3224 26.174 24.4158 26.0807 24.5558 26.006C24.8171 25.8567 25.0318 25.6747 25.1998 25.46C25.3678 25.236 25.4984 24.9653 25.5918 24.648C25.6944 24.3307 25.7644 23.9573 25.8018 23.528C25.8484 23.0987 25.8718 22.5947 25.8718 22.016V20.91C25.8718 20.6767 25.9324 20.4993 26.0538 20.378C26.1844 20.2473 26.3664 20.182 26.5998 20.182H30.2258C30.4591 20.182 30.6364 20.2473 30.7578 20.378C30.8791 20.4993 30.9398 20.6767 30.9398 20.91V26.44C30.9398 26.6547 30.8838 26.818 30.7718 26.93C30.6598 27.042 30.5058 27.098 30.3098 27.098ZM33.7132 27.098C33.5919 27.098 33.4845 27.0747 33.3912 27.028C33.3072 26.9813 33.2419 26.9067 33.1952 26.804C33.1485 26.7013 33.1252 26.5707 33.1252 26.412V20.7C33.1252 20.504 33.1765 20.3547 33.2792 20.252C33.3819 20.14 33.5265 20.084 33.7132 20.084C33.8905 20.084 34.0305 20.14 34.1332 20.252C34.2359 20.3547 34.2872 20.504 34.2872 20.7V25.754H33.9232L37.8712 20.49C37.9459 20.3873 38.0392 20.294 38.1512 20.21C38.2632 20.126 38.4125 20.084 38.5992 20.084C38.7299 20.084 38.8372 20.1073 38.9212 20.154C39.0052 20.2007 39.0659 20.2753 39.1032 20.378C39.1499 20.4713 39.1732 20.5973 39.1732 20.756V26.482C39.1732 26.6687 39.1219 26.818 39.0192 26.93C38.9259 27.042 38.7905 27.098 38.6132 27.098C38.4172 27.098 38.2679 27.042 38.1652 26.93C38.0719 26.818 38.0252 26.6687 38.0252 26.482V21.414H38.3892L34.4412 26.692C34.3665 26.7947 34.2732 26.888 34.1612 26.972C34.0492 27.056 33.8999 27.098 33.7132 27.098ZM43.6657 27.126C43.1897 27.126 42.723 27.0747 42.2657 26.972C41.8083 26.86 41.4163 26.7013 41.0897 26.496C40.959 26.4307 40.8657 26.3467 40.8097 26.244C40.763 26.1413 40.7443 26.0387 40.7537 25.936C40.763 25.8333 40.8003 25.7447 40.8657 25.67C40.9403 25.5953 41.029 25.5533 41.1317 25.544C41.2437 25.5253 41.3743 25.5533 41.5237 25.628C41.8223 25.8053 42.1583 25.9407 42.5317 26.034C42.905 26.118 43.2783 26.16 43.6517 26.16C44.305 26.16 44.7717 26.0667 45.0517 25.88C45.3317 25.6933 45.4717 25.4227 45.4717 25.068C45.4717 24.7227 45.355 24.4613 45.1217 24.284C44.8883 24.1067 44.557 24.018 44.1277 24.018H42.8957C42.737 24.018 42.6063 23.976 42.5037 23.892C42.4103 23.7987 42.3637 23.682 42.3637 23.542C42.3637 23.3927 42.4103 23.276 42.5037 23.192C42.6063 23.108 42.737 23.066 42.8957 23.066H43.9737C44.3657 23.066 44.6737 22.982 44.8977 22.814C45.131 22.6367 45.2477 22.394 45.2477 22.086C45.2477 21.7593 45.1217 21.5027 44.8697 21.316C44.6177 21.12 44.2023 21.022 43.6237 21.022C43.2597 21.022 42.9143 21.064 42.5877 21.148C42.261 21.2227 41.9437 21.3393 41.6357 21.498C41.4583 21.5913 41.3043 21.6193 41.1737 21.582C41.0523 21.5353 40.9637 21.456 40.9077 21.344C40.8517 21.2227 40.8423 21.1013 40.8797 20.98C40.9263 20.8493 41.0243 20.7467 41.1737 20.672C41.5563 20.4573 41.967 20.3033 42.4057 20.21C42.8443 20.1073 43.3063 20.056 43.7917 20.056C44.669 20.056 45.327 20.224 45.7657 20.56C46.2043 20.896 46.4237 21.3673 46.4237 21.974C46.4237 22.4033 46.2743 22.7673 45.9757 23.066C45.6863 23.3647 45.2943 23.542 44.7997 23.598V23.416C45.369 23.4347 45.8217 23.598 46.1577 23.906C46.503 24.2047 46.6757 24.606 46.6757 25.11C46.6757 25.7167 46.419 26.2067 45.9057 26.58C45.4017 26.944 44.655 27.126 43.6657 27.126ZM50.553 27.126C50.0863 27.126 49.6617 27.0327 49.279 26.846C48.9057 26.6593 48.6117 26.4073 48.397 26.09C48.1917 25.7727 48.089 25.418 48.089 25.026C48.089 24.522 48.215 24.1253 48.467 23.836C48.719 23.5467 49.1437 23.3413 49.741 23.22C50.3383 23.0893 51.141 23.024 52.149 23.024H52.807V23.836H52.177C51.4583 23.836 50.889 23.8687 50.469 23.934C50.0583 23.9993 49.769 24.116 49.601 24.284C49.433 24.4427 49.349 24.6667 49.349 24.956C49.349 25.32 49.475 25.6187 49.727 25.852C49.9883 26.0853 50.343 26.202 50.791 26.202C51.1457 26.202 51.4583 26.118 51.729 25.95C51.9997 25.7727 52.2143 25.5393 52.373 25.25C52.5317 24.9513 52.611 24.6107 52.611 24.228V22.618C52.611 22.0673 52.499 21.6707 52.275 21.428C52.051 21.176 51.673 21.05 51.141 21.05C50.833 21.05 50.5157 21.092 50.189 21.176C49.8623 21.26 49.5217 21.3907 49.167 21.568C49.027 21.6333 48.9057 21.6567 48.803 21.638C48.7003 21.61 48.6163 21.554 48.551 21.47C48.495 21.3767 48.4623 21.2787 48.453 21.176C48.453 21.064 48.4763 20.9567 48.523 20.854C48.579 20.7513 48.6723 20.6767 48.803 20.63C49.2137 20.4247 49.6197 20.28 50.021 20.196C50.4317 20.1027 50.8143 20.056 51.169 20.056C51.7757 20.056 52.275 20.154 52.667 20.35C53.059 20.5367 53.353 20.8307 53.549 21.232C53.745 21.624 53.843 22.128 53.843 22.744V26.44C53.843 26.6547 53.7917 26.818 53.689 26.93C53.5863 27.042 53.437 27.098 53.241 27.098C53.0543 27.098 52.905 27.042 52.793 26.93C52.6903 26.818 52.639 26.6547 52.639 26.44V25.446H52.765C52.6903 25.7913 52.5503 26.09 52.345 26.342C52.1397 26.594 51.883 26.79 51.575 26.93C51.2763 27.0607 50.9357 27.126 50.553 27.126ZM62.4383 28.918C62.2609 28.918 62.1256 28.8713 62.0323 28.778C61.9389 28.6847 61.8923 28.5447 61.8923 28.358V27H56.6562C56.4416 27 56.2783 26.944 56.1663 26.832C56.0543 26.72 55.9983 26.5567 55.9983 26.342V20.728C55.9983 20.5133 56.0543 20.3547 56.1663 20.252C56.2783 20.14 56.4369 20.084 56.6423 20.084C56.8476 20.084 57.0016 20.14 57.1043 20.252C57.2163 20.3547 57.2723 20.5133 57.2723 20.728V25.978H60.6183V20.728C60.6183 20.5133 60.6743 20.3547 60.7863 20.252C60.8983 20.14 61.0569 20.084 61.2623 20.084C61.4676 20.084 61.6216 20.14 61.7243 20.252C61.8363 20.3547 61.8923 20.5133 61.8923 20.728V26.58L61.3043 25.978H62.3683C62.5643 25.978 62.7136 26.034 62.8162 26.146C62.9283 26.2487 62.9843 26.398 62.9843 26.594V28.358C62.9843 28.7313 62.8023 28.918 62.4383 28.918ZM65.0218 27.098C64.9005 27.098 64.7931 27.0747 64.6998 27.028C64.6158 26.9813 64.5505 26.9067 64.5038 26.804C64.4571 26.7013 64.4338 26.5707 64.4338 26.412V20.7C64.4338 20.504 64.4851 20.3547 64.5878 20.252C64.6905 20.14 64.8351 20.084 65.0218 20.084C65.1991 20.084 65.3391 20.14 65.4418 20.252C65.5445 20.3547 65.5958 20.504 65.5958 20.7V25.754H65.2318L69.1798 20.49C69.2545 20.3873 69.3478 20.294 69.4598 20.21C69.5718 20.126 69.7211 20.084 69.9078 20.084C70.0385 20.084 70.1458 20.1073 70.2298 20.154C70.3138 20.2007 70.3745 20.2753 70.4118 20.378C70.4585 20.4713 70.4818 20.5973 70.4818 20.756V26.482C70.4818 26.6687 70.4305 26.818 70.3278 26.93C70.2345 27.042 70.0991 27.098 69.9218 27.098C69.7258 27.098 69.5765 27.042 69.4738 26.93C69.3805 26.818 69.3338 26.6687 69.3338 26.482V21.414H69.6978L65.7498 26.692C65.6751 26.7947 65.5818 26.888 65.4698 26.972C65.3578 27.056 65.2085 27.098 65.0218 27.098ZM77.4943 27.098C77.3076 27.098 77.1629 27.0467 77.0603 26.944C76.9576 26.832 76.9063 26.678 76.9063 26.482V24.452H75.9683C75.6229 24.452 75.3243 24.5407 75.0723 24.718C74.8203 24.8953 74.6196 25.1193 74.4703 25.39L73.7003 26.734C73.6069 26.8927 73.4949 26.9953 73.3643 27.042C73.2429 27.098 73.1169 27.1073 72.9863 27.07C72.8649 27.042 72.7576 26.9813 72.6643 26.888C72.5709 26.7947 72.5103 26.6827 72.4823 26.552C72.4636 26.4213 72.5009 26.286 72.5943 26.146L73.1963 25.096C73.3549 24.8347 73.5649 24.6107 73.8263 24.424C74.0876 24.2373 74.3583 24.144 74.6383 24.144H74.8343V24.27C74.0689 24.27 73.4716 24.0927 73.0423 23.738C72.6129 23.3833 72.3983 22.8887 72.3983 22.254C72.3983 21.834 72.4916 21.47 72.6783 21.162C72.8743 20.8447 73.1589 20.602 73.5323 20.434C73.9056 20.266 74.3723 20.182 74.9323 20.182H77.4383C77.6436 20.182 77.8023 20.238 77.9143 20.35C78.0356 20.462 78.0963 20.6253 78.0963 20.84V26.482C78.0963 26.678 78.0403 26.832 77.9283 26.944C77.8256 27.0467 77.6809 27.098 77.4943 27.098ZM75.1843 23.57H76.9063V21.064H75.1843C74.6523 21.064 74.2603 21.176 74.0083 21.4C73.7563 21.6147 73.6303 21.918 73.6303 22.31C73.6303 22.702 73.7563 23.01 74.0083 23.234C74.2603 23.458 74.6523 23.57 75.1843 23.57Z" fill="white" fill-opacity="0.4"/>
<path d="M10.248 72.352C10.0613 72.352 9.91667 72.296 9.814 72.184C9.71133 72.0813 9.66 71.9367 9.66 71.75V70H1.89C1.666 70 1.49333 69.9393 1.372 69.818C1.25067 69.6967 1.19 69.524 1.19 69.3V60.704C1.19 60.48 1.246 60.312 1.358 60.2C1.47 60.088 1.62867 60.032 1.834 60.032C2.04867 60.032 2.212 60.088 2.324 60.2C2.436 60.312 2.492 60.48 2.492 60.704V68.894H8.134V60.704C8.134 60.48 8.19 60.312 8.302 60.2C8.414 60.088 8.57267 60.032 8.778 60.032C8.99267 60.032 9.156 60.088 9.268 60.2C9.38 60.312 9.436 60.48 9.436 60.704V69.482L8.848 68.894H10.192C10.3973 68.894 10.556 68.95 10.668 69.062C10.78 69.1647 10.836 69.3233 10.836 69.538V71.75C10.836 72.1513 10.64 72.352 10.248 72.352ZM15.3846 70.126C14.6472 70.126 14.0126 69.986 13.4806 69.706C12.9579 69.4167 12.5519 69.0107 12.2626 68.488C11.9732 67.956 11.8286 67.3307 11.8286 66.612C11.8286 65.9027 11.9686 65.282 12.2486 64.75C12.5379 64.218 12.9299 63.8027 13.4246 63.504C13.9286 63.2053 14.5026 63.056 15.1466 63.056C15.6039 63.056 16.0146 63.1353 16.3786 63.294C16.7519 63.4433 17.0692 63.6627 17.3306 63.952C17.5919 64.2413 17.7879 64.596 17.9186 65.016C18.0586 65.4267 18.1286 65.8933 18.1286 66.416C18.1286 66.5653 18.0819 66.682 17.9886 66.766C17.9046 66.8407 17.7786 66.878 17.6106 66.878H12.8226V66.066H17.2886L17.0506 66.262C17.0506 65.7767 16.9759 65.366 16.8266 65.03C16.6866 64.6847 16.4766 64.4233 16.1966 64.246C15.9259 64.0687 15.5852 63.98 15.1746 63.98C14.7266 63.98 14.3439 64.0873 14.0266 64.302C13.7092 64.5073 13.4666 64.8013 13.2986 65.184C13.1306 65.5573 13.0466 65.9913 13.0466 66.486V66.57C13.0466 67.41 13.2472 68.0447 13.6486 68.474C14.0499 68.9033 14.6286 69.118 15.3846 69.118C15.6832 69.118 15.9866 69.0807 16.2946 69.006C16.6119 68.9313 16.9152 68.796 17.2046 68.6C17.3446 68.516 17.4706 68.4787 17.5826 68.488C17.7039 68.488 17.8019 68.5253 17.8766 68.6C17.9512 68.6653 17.9979 68.7493 18.0166 68.852C18.0352 68.9453 18.0212 69.048 17.9746 69.16C17.9279 69.272 17.8392 69.37 17.7086 69.454C17.4006 69.6687 17.0319 69.8367 16.6026 69.958C16.1826 70.07 15.7766 70.126 15.3846 70.126ZM20.5075 70.098C20.3022 70.098 20.1435 70.042 20.0315 69.93C19.9195 69.818 19.8635 69.6547 19.8635 69.44V63.728C19.8635 63.5133 19.9195 63.3547 20.0315 63.252C20.1435 63.14 20.3022 63.084 20.5075 63.084C20.7128 63.084 20.8668 63.14 20.9695 63.252C21.0815 63.3547 21.1375 63.5133 21.1375 63.728V65.982H24.6935V63.728C24.6935 63.5133 24.7448 63.3547 24.8475 63.252C24.9595 63.14 25.1182 63.084 25.3235 63.084C25.5288 63.084 25.6875 63.14 25.7995 63.252C25.9115 63.3547 25.9675 63.5133 25.9675 63.728V69.44C25.9675 69.6547 25.9115 69.818 25.7995 69.93C25.6875 70.042 25.5288 70.098 25.3235 70.098C25.1182 70.098 24.9595 70.042 24.8475 69.93C24.7448 69.818 24.6935 69.6547 24.6935 69.44V67.004H21.1375V69.44C21.1375 69.6547 21.0862 69.818 20.9835 69.93C20.8808 70.042 20.7222 70.098 20.5075 70.098ZM30.3186 70.126C29.852 70.126 29.4273 70.0327 29.0446 69.846C28.6713 69.6593 28.3773 69.4073 28.1626 69.09C27.9573 68.7727 27.8546 68.418 27.8546 68.026C27.8546 67.522 27.9806 67.1253 28.2326 66.836C28.4846 66.5467 28.9093 66.3413 29.5066 66.22C30.104 66.0893 30.9066 66.024 31.9146 66.024H32.5726V66.836H31.9426C31.224 66.836 30.6546 66.8687 30.2346 66.934C29.824 66.9993 29.5346 67.116 29.3666 67.284C29.1986 67.4427 29.1146 67.6667 29.1146 67.956C29.1146 68.32 29.2406 68.6187 29.4926 68.852C29.754 69.0853 30.1086 69.202 30.5566 69.202C30.9113 69.202 31.224 69.118 31.4946 68.95C31.7653 68.7727 31.98 68.5393 32.1386 68.25C32.2973 67.9513 32.3766 67.6107 32.3766 67.228V65.618C32.3766 65.0673 32.2646 64.6707 32.0406 64.428C31.8166 64.176 31.4386 64.05 30.9066 64.05C30.5986 64.05 30.2813 64.092 29.9546 64.176C29.628 64.26 29.2873 64.3907 28.9326 64.568C28.7926 64.6333 28.6713 64.6567 28.5686 64.638C28.466 64.61 28.382 64.554 28.3166 64.47C28.2606 64.3767 28.228 64.2787 28.2186 64.176C28.2186 64.064 28.242 63.9567 28.2886 63.854C28.3446 63.7513 28.438 63.6767 28.5686 63.63C28.9793 63.4247 29.3853 63.28 29.7866 63.196C30.1973 63.1027 30.58 63.056 30.9346 63.056C31.5413 63.056 32.0406 63.154 32.4326 63.35C32.8246 63.5367 33.1186 63.8307 33.3146 64.232C33.5106 64.624 33.6086 65.128 33.6086 65.744V69.44C33.6086 69.6547 33.5573 69.818 33.4546 69.93C33.352 70.042 33.2026 70.098 33.0066 70.098C32.82 70.098 32.6706 70.042 32.5586 69.93C32.456 69.818 32.4046 69.6547 32.4046 69.44V68.446H32.5306C32.456 68.7913 32.316 69.09 32.1106 69.342C31.9053 69.594 31.6486 69.79 31.3406 69.93C31.042 70.0607 30.7013 70.126 30.3186 70.126Z" fill="white" fill-opacity="0.4"/>
<path d="M300.72 27.16C299.909 27.16 299.205 26.9947 298.608 26.664C298.011 26.3333 297.547 25.864 297.216 25.256C296.885 24.6373 296.72 23.912 296.72 23.08C296.72 22.4507 296.811 21.8907 296.992 21.4C297.184 20.8987 297.456 20.472 297.808 20.12C298.16 19.7573 298.581 19.4853 299.072 19.304C299.563 19.112 300.112 19.016 300.72 19.016C301.531 19.016 302.235 19.1813 302.832 19.512C303.429 19.8427 303.893 20.312 304.224 20.92C304.555 21.528 304.72 22.248 304.72 23.08C304.72 23.7093 304.624 24.2747 304.432 24.776C304.251 25.2773 303.984 25.7093 303.632 26.072C303.28 26.424 302.859 26.696 302.368 26.888C301.877 27.0693 301.328 27.16 300.72 27.16ZM300.72 25.64C301.115 25.64 301.461 25.544 301.76 25.352C302.059 25.16 302.288 24.8773 302.448 24.504C302.619 24.12 302.704 23.6453 302.704 23.08C302.704 22.2267 302.523 21.592 302.16 21.176C301.797 20.7493 301.317 20.536 300.72 20.536C300.325 20.536 299.979 20.632 299.68 20.824C299.381 21.0053 299.147 21.288 298.976 21.672C298.816 22.0453 298.736 22.5147 298.736 23.08C298.736 23.9227 298.917 24.5627 299.28 25C299.643 25.4267 300.123 25.64 300.72 25.64ZM309.23 27.128C308.91 27.128 308.659 27.0427 308.478 26.872C308.307 26.6907 308.222 26.4347 308.222 26.104V20.744H306.27C305.694 20.744 305.405 20.4827 305.405 19.96C305.405 19.7147 305.48 19.5227 305.63 19.384C305.79 19.2453 306.003 19.176 306.27 19.176H312.174C312.75 19.176 313.038 19.4373 313.038 19.96C313.038 20.216 312.963 20.4133 312.814 20.552C312.664 20.68 312.451 20.744 312.174 20.744H310.222V26.104C310.222 26.4347 310.136 26.6907 309.966 26.872C309.806 27.0427 309.56 27.128 309.23 27.128ZM323.952 27.128C323.632 27.128 323.381 27.0427 323.2 26.872C323.018 26.6907 322.928 26.4347 322.928 26.104V24.856H318.976C318.645 24.856 318.378 24.7867 318.176 24.648C317.984 24.5093 317.888 24.2907 317.888 23.992C317.888 23.8213 317.93 23.6347 318.016 23.432C318.112 23.2293 318.277 22.9627 318.512 22.632L322.896 16.28C323.045 16.056 323.21 15.8853 323.392 15.768C323.573 15.6507 323.781 15.592 324.016 15.592C324.293 15.592 324.522 15.6773 324.704 15.848C324.885 16.008 324.976 16.264 324.976 16.616V23.16H325.76C326.069 23.16 326.298 23.2347 326.448 23.384C326.608 23.5227 326.688 23.7307 326.688 24.008C326.688 24.2853 326.608 24.4987 326.448 24.648C326.298 24.7867 326.069 24.856 325.76 24.856H324.976V26.104C324.976 26.4347 324.885 26.6907 324.704 26.872C324.522 27.0427 324.272 27.128 323.952 27.128ZM322.928 23.16V18.168H323.392L319.616 23.704V23.16H322.928ZM333.425 27.128C333.105 27.128 332.855 27.0427 332.673 26.872C332.503 26.6907 332.417 26.4347 332.417 26.104V20.056C332.417 19.7147 332.503 19.464 332.673 19.304C332.855 19.1333 333.105 19.048 333.425 19.048C333.745 19.048 333.991 19.1333 334.161 19.304C334.332 19.464 334.417 19.7147 334.417 20.056V22.2H337.873V20.056C337.873 19.7147 337.959 19.464 338.129 19.304C338.3 19.1333 338.545 19.048 338.865 19.048C339.185 19.048 339.431 19.1333 339.601 19.304C339.783 19.464 339.873 19.7147 339.873 20.056V26.104C339.873 26.4347 339.783 26.6907 339.601 26.872C339.431 27.0427 339.185 27.128 338.865 27.128C338.545 27.128 338.3 27.0427 338.129 26.872C337.959 26.6907 337.873 26.4347 337.873 26.104V23.768H334.417V26.104C334.417 26.4347 334.332 26.6907 334.161 26.872C334.001 27.0427 333.756 27.128 333.425 27.128ZM346.024 27.16C345.138 27.16 344.376 26.9947 343.736 26.664C343.096 26.3333 342.6 25.864 342.248 25.256C341.906 24.648 341.736 23.928 341.736 23.096C341.736 22.2853 341.901 21.576 342.232 20.968C342.573 20.36 343.037 19.8853 343.624 19.544C344.221 19.192 344.898 19.016 345.656 19.016C346.21 19.016 346.706 19.1067 347.144 19.288C347.592 19.4693 347.97 19.7307 348.28 20.072C348.6 20.4133 348.84 20.8293 349 21.32C349.17 21.8 349.256 22.344 349.256 22.952C349.256 23.144 349.186 23.2933 349.048 23.4C348.92 23.496 348.733 23.544 348.488 23.544H343.352V22.392H347.848L347.592 22.632C347.592 22.1413 347.517 21.7307 347.368 21.4C347.229 21.0693 347.021 20.8187 346.744 20.648C346.477 20.4667 346.141 20.376 345.736 20.376C345.288 20.376 344.904 20.4827 344.584 20.696C344.274 20.8987 344.034 21.192 343.864 21.576C343.704 21.9493 343.624 22.3973 343.624 22.92V23.032C343.624 23.9067 343.826 24.5627 344.232 25C344.648 25.4267 345.256 25.64 346.056 25.64C346.333 25.64 346.642 25.608 346.984 25.544C347.336 25.4693 347.666 25.3467 347.976 25.176C348.2 25.048 348.397 24.9947 348.568 25.016C348.738 25.0267 348.872 25.0853 348.968 25.192C349.074 25.2987 349.138 25.432 349.16 25.592C349.181 25.7413 349.149 25.896 349.064 26.056C348.989 26.216 348.856 26.3547 348.664 26.472C348.29 26.7067 347.858 26.8827 347.368 27C346.888 27.1067 346.44 27.16 346.024 27.16ZM351.186 29.208C350.92 29.208 350.706 29.128 350.546 28.968C350.397 28.8187 350.322 28.6 350.322 28.312V26.36C350.322 25.7413 350.632 25.432 351.25 25.432H352.146L350.962 25.848C351.24 25.4747 351.458 25.0853 351.618 24.68C351.778 24.2747 351.896 23.8107 351.97 23.288C352.045 22.7547 352.082 22.1253 352.082 21.4V20.296C352.082 19.9333 352.178 19.656 352.37 19.464C352.562 19.272 352.84 19.176 353.202 19.176H357.058C357.421 19.176 357.698 19.272 357.89 19.464C358.082 19.656 358.178 19.9333 358.178 20.296V26.36L357.25 25.432H358.53C358.829 25.432 359.058 25.512 359.218 25.672C359.378 25.8213 359.458 26.0507 359.458 26.36V28.312C359.458 28.9093 359.176 29.208 358.61 29.208C358.333 29.208 358.12 29.128 357.97 28.968C357.832 28.8187 357.762 28.6 357.762 28.312V27H352.018V28.312C352.018 28.9093 351.741 29.208 351.186 29.208ZM353.026 25.432H356.306V20.712H353.794V21.864C353.794 22.536 353.725 23.1867 353.586 23.816C353.458 24.4453 353.272 24.984 353.026 25.432ZM361.797 27.08C361.434 27.08 361.141 26.968 360.917 26.744C360.704 26.52 360.597 26.232 360.597 25.88C360.597 25.5387 360.704 25.2613 360.917 25.048C361.141 24.824 361.434 24.712 361.797 24.712C362.17 24.712 362.458 24.824 362.661 25.048C362.874 25.2613 362.981 25.5387 362.981 25.88C362.981 26.232 362.874 26.52 362.661 26.744C362.458 26.968 362.17 27.08 361.797 27.08Z" fill="#F6CB73"/>
<path d="M270.72 70.16C269.909 70.16 269.205 69.9947 268.608 69.664C268.011 69.3333 267.547 68.864 267.216 68.256C266.885 67.6373 266.72 66.912 266.72 66.08C266.72 65.4507 266.811 64.8907 266.992 64.4C267.184 63.8987 267.456 63.472 267.808 63.12C268.16 62.7573 268.581 62.4853 269.072 62.304C269.563 62.112 270.112 62.016 270.72 62.016C271.531 62.016 272.235 62.1813 272.832 62.512C273.429 62.8427 273.893 63.312 274.224 63.92C274.555 64.528 274.72 65.248 274.72 66.08C274.72 66.7093 274.624 67.2747 274.432 67.776C274.251 68.2773 273.984 68.7093 273.632 69.072C273.28 69.424 272.859 69.696 272.368 69.888C271.877 70.0693 271.328 70.16 270.72 70.16ZM270.72 68.64C271.115 68.64 271.461 68.544 271.76 68.352C272.059 68.16 272.288 67.8773 272.448 67.504C272.619 67.12 272.704 66.6453 272.704 66.08C272.704 65.2267 272.523 64.592 272.16 64.176C271.797 63.7493 271.317 63.536 270.72 63.536C270.325 63.536 269.979 63.632 269.68 63.824C269.381 64.0053 269.147 64.288 268.976 64.672C268.816 65.0453 268.736 65.5147 268.736 66.08C268.736 66.9227 268.917 67.5627 269.28 68C269.643 68.4267 270.123 68.64 270.72 68.64ZM279.23 70.128C278.91 70.128 278.659 70.0427 278.478 69.872C278.307 69.6907 278.222 69.4347 278.222 69.104V63.744H276.27C275.694 63.744 275.405 63.4827 275.405 62.96C275.405 62.7147 275.48 62.5227 275.63 62.384C275.79 62.2453 276.003 62.176 276.27 62.176H282.174C282.75 62.176 283.038 62.4373 283.038 62.96C283.038 63.216 282.963 63.4133 282.814 63.552C282.664 63.68 282.451 63.744 282.174 63.744H280.222V69.104C280.222 69.4347 280.136 69.6907 279.966 69.872C279.806 70.0427 279.56 70.128 279.23 70.128ZM292.24 70.16C291.674 70.16 291.098 70.0853 290.512 69.936C289.925 69.7867 289.386 69.5573 288.896 69.248C288.693 69.12 288.554 68.9707 288.48 68.8C288.416 68.6187 288.4 68.4427 288.432 68.272C288.474 68.0907 288.554 67.9413 288.672 67.824C288.8 67.696 288.949 67.6213 289.12 67.6C289.301 67.5787 289.498 67.6267 289.712 67.744C290.106 67.968 290.506 68.1387 290.912 68.256C291.317 68.3733 291.749 68.432 292.208 68.432C292.656 68.432 293.04 68.352 293.36 68.192C293.68 68.032 293.925 67.808 294.096 67.52C294.266 67.232 294.352 66.896 294.352 66.512C294.352 65.9147 294.17 65.4347 293.808 65.072C293.445 64.6987 292.949 64.512 292.32 64.512C291.978 64.512 291.648 64.5707 291.328 64.688C291.008 64.7947 290.693 64.9867 290.384 65.264C290.288 65.3493 290.165 65.4347 290.016 65.52C289.866 65.5947 289.706 65.632 289.536 65.632C289.269 65.632 289.066 65.5627 288.928 65.424C288.789 65.2853 288.72 65.0933 288.72 64.848V59.616C288.72 59.328 288.794 59.1093 288.944 58.96C289.104 58.8 289.328 58.72 289.616 58.72H294.88C295.168 58.72 295.386 58.7947 295.536 58.944C295.696 59.0827 295.776 59.2907 295.776 59.568C295.776 59.8347 295.696 60.0427 295.536 60.192C295.386 60.3413 295.168 60.416 294.88 60.416H290.72V64H290.192C290.469 63.6267 290.837 63.3387 291.296 63.136C291.754 62.9333 292.256 62.832 292.8 62.832C293.514 62.832 294.133 62.9867 294.656 63.296C295.189 63.5947 295.6 64.016 295.888 64.56C296.186 65.0933 296.336 65.7173 296.336 66.432C296.336 67.168 296.17 67.8187 295.84 68.384C295.509 68.9387 295.034 69.376 294.416 69.696C293.808 70.0053 293.082 70.16 292.24 70.16ZM301.738 70.16C300.404 70.16 299.386 69.6587 298.682 68.656C297.978 67.6427 297.626 66.2027 297.626 64.336C297.626 63.0773 297.78 62.0213 298.09 61.168C298.41 60.304 298.874 59.6533 299.482 59.216C300.1 58.7787 300.852 58.56 301.738 58.56C303.082 58.56 304.1 59.0507 304.794 60.032C305.498 61.0133 305.85 62.4427 305.85 64.32C305.85 65.568 305.69 66.6293 305.37 67.504C305.06 68.368 304.602 69.0293 303.994 69.488C303.386 69.936 302.634 70.16 301.738 70.16ZM301.738 68.48C302.463 68.48 302.996 68.144 303.338 67.472C303.69 66.8 303.866 65.7493 303.866 64.32C303.866 62.8907 303.69 61.856 303.338 61.216C302.996 60.5653 302.463 60.24 301.738 60.24C301.023 60.24 300.49 60.5653 300.138 61.216C299.786 61.856 299.61 62.8907 299.61 64.32C299.61 65.7493 299.786 66.8 300.138 67.472C300.49 68.144 301.023 68.48 301.738 68.48ZM311.331 70.16C309.998 70.16 308.979 69.6587 308.275 68.656C307.571 67.6427 307.219 66.2027 307.219 64.336C307.219 63.0773 307.374 62.0213 307.683 61.168C308.003 60.304 308.467 59.6533 309.075 59.216C309.694 58.7787 310.446 58.56 311.331 58.56C312.675 58.56 313.694 59.0507 314.387 60.032C315.091 61.0133 315.443 62.4427 315.443 64.32C315.443 65.568 315.283 66.6293 314.963 67.504C314.654 68.368 314.195 69.0293 313.587 69.488C312.979 69.936 312.227 70.16 311.331 70.16ZM311.331 68.48C312.057 68.48 312.59 68.144 312.931 67.472C313.283 66.8 313.459 65.7493 313.459 64.32C313.459 62.8907 313.283 61.856 312.931 61.216C312.59 60.5653 312.057 60.24 311.331 60.24C310.617 60.24 310.083 60.5653 309.731 61.216C309.379 61.856 309.203 62.8907 309.203 64.32C309.203 65.7493 309.379 66.8 309.731 67.472C310.083 68.144 310.617 68.48 311.331 68.48ZM325.269 70.16C323.935 70.16 322.917 69.6587 322.213 68.656C321.509 67.6427 321.157 66.2027 321.157 64.336C321.157 63.0773 321.311 62.0213 321.621 61.168C321.941 60.304 322.405 59.6533 323.013 59.216C323.631 58.7787 324.383 58.56 325.269 58.56C326.613 58.56 327.631 59.0507 328.325 60.032C329.029 61.0133 329.381 62.4427 329.381 64.32C329.381 65.568 329.221 66.6293 328.901 67.504C328.591 68.368 328.133 69.0293 327.525 69.488C326.917 69.936 326.165 70.16 325.269 70.16ZM325.269 68.48C325.994 68.48 326.527 68.144 326.869 67.472C327.221 66.8 327.397 65.7493 327.397 64.32C327.397 62.8907 327.221 61.856 326.869 61.216C326.527 60.5653 325.994 60.24 325.269 60.24C324.554 60.24 324.021 60.5653 323.669 61.216C323.317 61.856 323.141 62.8907 323.141 64.32C323.141 65.7493 323.317 66.8 323.669 67.472C324.021 68.144 324.554 68.48 325.269 68.48ZM334.863 70.16C333.529 70.16 332.511 69.6587 331.807 68.656C331.103 67.6427 330.751 66.2027 330.751 64.336C330.751 63.0773 330.905 62.0213 331.215 61.168C331.535 60.304 331.999 59.6533 332.607 59.216C333.225 58.7787 333.977 58.56 334.863 58.56C336.207 58.56 337.225 59.0507 337.919 60.032C338.623 61.0133 338.975 62.4427 338.975 64.32C338.975 65.568 338.815 66.6293 338.495 67.504C338.185 68.368 337.727 69.0293 337.119 69.488C336.511 69.936 335.759 70.16 334.863 70.16ZM334.863 68.48C335.588 68.48 336.121 68.144 336.463 67.472C336.815 66.8 336.991 65.7493 336.991 64.32C336.991 62.8907 336.815 61.856 336.463 61.216C336.121 60.5653 335.588 60.24 334.863 60.24C334.148 60.24 333.615 60.5653 333.263 61.216C332.911 61.856 332.735 62.8907 332.735 64.32C332.735 65.7493 332.911 66.8 333.263 67.472C333.615 68.144 334.148 68.48 334.863 68.48ZM344.456 70.16C343.123 70.16 342.104 69.6587 341.4 68.656C340.696 67.6427 340.344 66.2027 340.344 64.336C340.344 63.0773 340.499 62.0213 340.808 61.168C341.128 60.304 341.592 59.6533 342.2 59.216C342.819 58.7787 343.571 58.56 344.456 58.56C345.8 58.56 346.819 59.0507 347.512 60.032C348.216 61.0133 348.568 62.4427 348.568 64.32C348.568 65.568 348.408 66.6293 348.088 67.504C347.779 68.368 347.32 69.0293 346.712 69.488C346.104 69.936 345.352 70.16 344.456 70.16ZM344.456 68.48C345.182 68.48 345.715 68.144 346.056 67.472C346.408 66.8 346.584 65.7493 346.584 64.32C346.584 62.8907 346.408 61.856 346.056 61.216C345.715 60.5653 345.182 60.24 344.456 60.24C343.742 60.24 343.208 60.5653 342.856 61.216C342.504 61.856 342.328 62.8907 342.328 64.32C342.328 65.7493 342.504 66.8 342.856 67.472C343.208 68.144 343.742 68.48 344.456 68.48ZM356.298 70.128C355.967 70.128 355.711 70.0373 355.53 69.856C355.348 69.664 355.258 69.392 355.258 69.04V67.776H354.538C354.292 67.776 354.1 67.7173 353.962 67.6C353.834 67.472 353.77 67.296 353.77 67.072C353.77 66.848 353.834 66.6773 353.962 66.56C354.1 66.432 354.292 66.368 354.538 66.368H355.258V65.28H354.538C354.292 65.28 354.1 65.2213 353.962 65.104C353.834 64.976 353.77 64.8 353.77 64.576C353.77 64.352 353.834 64.1813 353.962 64.064C354.1 63.936 354.292 63.872 354.538 63.872H355.258V59.744C355.258 59.4133 355.343 59.1627 355.514 58.992C355.695 58.8107 355.951 58.72 356.282 58.72H359.082C359.903 58.72 360.596 58.8587 361.162 59.136C361.738 59.4133 362.17 59.8027 362.458 60.304C362.756 60.8053 362.906 61.392 362.906 62.064C362.906 62.7147 362.756 63.28 362.458 63.76C362.159 64.24 361.732 64.6133 361.178 64.88C360.623 65.1467 359.951 65.28 359.162 65.28H357.338V66.368H359.258C359.503 66.368 359.69 66.432 359.818 66.56C359.956 66.6773 360.026 66.848 360.026 67.072C360.026 67.296 359.956 67.472 359.818 67.6C359.69 67.7173 359.503 67.776 359.258 67.776H357.338V69.04C357.338 69.392 357.247 69.664 357.066 69.856C356.895 70.0373 356.639 70.128 356.298 70.128ZM357.306 63.872H358.826C359.498 63.872 360.015 63.744 360.378 63.488C360.74 63.232 360.922 62.8053 360.922 62.208C360.922 61.6107 360.74 61.168 360.378 60.88C360.026 60.592 359.508 60.448 358.826 60.448H357.306V63.872Z" fill="#F6CB73"/>
<rect width="364" height="1" rx="0.5" fill="#F6CB73"/>
<rect y="43" width="364" height="1" rx="0.5" fill="#F6CB73"/>
<rect y="86" width="364" height="1" rx="0.5" fill="#F6CB73"/>
</svg>
