<svg width="56" height="56" viewBox="0 0 56 56" fill="none" xmlns="http://www.w3.org/2000/svg">
<rect width="56" height="56" rx="28" fill="#F6CB73"/>
<path d="M24.6253 26.8417C24.356 27.6252 24.3679 28.478 24.6589 29.2537C24.8414 29.7404 25.1281 30.1812 25.4988 30.5455C25.8695 30.9098 26.3154 31.1887 26.8052 31.3627C27.2949 31.5366 27.8168 31.6015 28.3343 31.5527C28.8517 31.5039 29.3523 31.3426 29.8009 31.0801C30.5083 30.6658 31.0518 30.021 31.3405 29.2537H28.1317V26.8801H33.8953C34.0979 27.95 34.0058 29.0547 33.6289 30.0763C33.252 31.0979 32.6045 31.9978 31.7557 32.6797C31.0078 33.2801 30.1269 33.6925 29.1868 33.8823C28.2467 34.072 27.2748 34.0337 26.3525 33.7704C25.4303 33.5072 24.5846 33.0267 23.8864 32.3692C23.1881 31.7117 22.6576 30.8964 22.3394 29.9917C22.0212 29.087 21.9245 28.1191 22.0574 27.1693C22.1904 26.2195 22.549 25.3154 23.1034 24.5327C23.6578 23.7501 24.3917 23.1118 25.2436 22.6713C26.0955 22.2308 27.0406 22.0009 27.9997 22.0009C29.3985 21.9995 30.7535 22.4887 31.8289 23.3833L29.8849 24.9745C29.4295 24.691 28.916 24.5138 28.3827 24.456C27.8493 24.3983 27.3098 24.4616 26.8043 24.6411C26.2988 24.8207 25.8402 25.1119 25.4628 25.4931C25.0853 25.8742 24.7986 26.3356 24.6241 26.8429L24.6253 26.8417Z" fill="white"/>
<path d="M28 37.6C30.5461 37.6 32.9879 36.5886 34.7882 34.7882C36.5886 32.9879 37.6 30.5461 37.6 28C37.6 25.4539 36.5886 23.0121 34.7882 21.2118C32.9879 19.4114 30.5461 18.4 28 18.4C25.4539 18.4 23.0121 19.4114 21.2118 21.2118C19.4114 23.0121 18.4 25.4539 18.4 28C18.4 30.5461 19.4114 32.9879 21.2118 34.7882C23.0121 36.5886 25.4539 37.6 28 37.6ZM28 40C21.3724 40 16 34.6276 16 28C16 21.3724 21.3724 16 28 16C34.6276 16 40 21.3724 40 28C40 34.6276 34.6276 40 28 40Z" fill="white"/>
</svg>
