<svg width="58" height="30" viewBox="0 0 58 30" fill="none" xmlns="http://www.w3.org/2000/svg">
<rect width="58" height="30" rx="15" fill="#837EDE"/>
<path d="M29 9.26055C30.8703 9.26055 31.0918 9.26875 31.8273 9.30156C32.5109 9.33164 32.8801 9.44648 33.1262 9.54219C33.4516 9.66797 33.6867 9.82109 33.9301 10.0645C34.1762 10.3105 34.3266 10.543 34.4523 10.8684C34.548 11.1145 34.6629 11.4863 34.693 12.1672C34.7258 12.9055 34.734 13.127 34.734 14.9945C34.734 16.8648 34.7258 17.0863 34.693 17.8219C34.6629 18.5055 34.548 18.8746 34.4523 19.1207C34.3266 19.4461 34.1734 19.6812 33.9301 19.9246C33.684 20.1707 33.4516 20.3211 33.1262 20.4469C32.8801 20.5426 32.5082 20.6574 31.8273 20.6875C31.0891 20.7203 30.8676 20.7285 29 20.7285C27.1297 20.7285 26.9082 20.7203 26.1727 20.6875C25.4891 20.6574 25.1199 20.5426 24.8738 20.4469C24.5484 20.3211 24.3133 20.168 24.0699 19.9246C23.8238 19.6785 23.6734 19.4461 23.5477 19.1207C23.452 18.8746 23.3371 18.5027 23.307 17.8219C23.2742 17.0836 23.266 16.8621 23.266 14.9945C23.266 13.1242 23.2742 12.9027 23.307 12.1672C23.3371 11.4836 23.452 11.1145 23.5477 10.8684C23.6734 10.543 23.8266 10.3078 24.0699 10.0645C24.316 9.81836 24.5484 9.66797 24.8738 9.54219C25.1199 9.44648 25.4918 9.33164 26.1727 9.30156C26.9082 9.26875 27.1297 9.26055 29 9.26055ZM29 8C27.0996 8 26.8617 8.0082 26.1152 8.04102C25.3715 8.07383 24.8602 8.19414 24.4172 8.36641C23.9551 8.54687 23.5641 8.78477 23.1758 9.17578C22.7848 9.56406 22.5469 9.95508 22.3664 10.4145C22.1941 10.8602 22.0738 11.3687 22.041 12.1125C22.0082 12.8617 22 13.0996 22 15C22 16.9004 22.0082 17.1383 22.041 17.8848C22.0738 18.6285 22.1941 19.1398 22.3664 19.5828C22.5469 20.0449 22.7848 20.4359 23.1758 20.8242C23.5641 21.2125 23.9551 21.4531 24.4145 21.6309C24.8602 21.8031 25.3687 21.9234 26.1125 21.9562C26.859 21.9891 27.0969 21.9973 28.9973 21.9973C30.8977 21.9973 31.1355 21.9891 31.882 21.9562C32.6258 21.9234 33.1371 21.8031 33.5801 21.6309C34.0395 21.4531 34.4305 21.2125 34.8187 20.8242C35.207 20.4359 35.4477 20.0449 35.6254 19.5855C35.7977 19.1398 35.918 18.6313 35.9508 17.8875C35.9836 17.141 35.9918 16.9031 35.9918 15.0027C35.9918 13.1023 35.9836 12.8645 35.9508 12.118C35.918 11.3742 35.7977 10.8629 35.6254 10.4199C35.4531 9.95508 35.2152 9.56406 34.8242 9.17578C34.4359 8.7875 34.0449 8.54688 33.5855 8.36914C33.1398 8.19687 32.6313 8.07656 31.8875 8.04375C31.1383 8.0082 30.9004 8 29 8Z" fill="white"/>
<path d="M29 11.4043C27.0148 11.4043 25.4043 13.0148 25.4043 15C25.4043 16.9852 27.0148 18.5957 29 18.5957C30.9852 18.5957 32.5957 16.9852 32.5957 15C32.5957 13.0148 30.9852 11.4043 29 11.4043ZM29 17.3324C27.7121 17.3324 26.6676 16.2879 26.6676 15C26.6676 13.7121 27.7121 12.6676 29 12.6676C30.2879 12.6676 31.3324 13.7121 31.3324 15C31.3324 16.2879 30.2879 17.3324 29 17.3324Z" fill="white"/>
<path d="M33.5773 11.2623C33.5773 11.7271 33.2 12.1018 32.7379 12.1018C32.273 12.1018 31.8984 11.7244 31.8984 11.2623C31.8984 10.7975 32.2758 10.4229 32.7379 10.4229C33.2 10.4229 33.5773 10.8002 33.5773 11.2623Z" fill="white"/>
</svg>
