<svg width="58" height="30" viewBox="0 0 58 30" fill="none" xmlns="http://www.w3.org/2000/svg">
<rect width="58" height="30" rx="15" fill="#837EDE"/>
<path d="M34.9637 8H23.0336C22.4621 8 22 8.45117 22 9.00898V20.9883C22 21.5461 22.4621 22 23.0336 22H34.9637C35.5352 22 36 21.5461 36 20.991V9.00898C36 8.45117 35.5352 8 34.9637 8ZM26.1535 19.9301H24.0754V13.2473H26.1535V19.9301ZM25.1145 12.3367C24.4473 12.3367 23.9086 11.798 23.9086 11.1336C23.9086 10.4691 24.4473 9.93047 25.1145 9.93047C25.7789 9.93047 26.3176 10.4691 26.3176 11.1336C26.3176 11.7953 25.7789 12.3367 25.1145 12.3367ZM33.9301 19.9301H31.8547V16.6816C31.8547 15.9078 31.841 14.9098 30.7746 14.9098C29.6945 14.9098 29.5305 15.7547 29.5305 16.627V19.9301H27.4578V13.2473H29.4484V14.1605H29.4758C29.752 13.6355 30.4301 13.0805 31.4391 13.0805C33.5418 13.0805 33.9301 14.4641 33.9301 16.2633V19.9301Z" fill="white"/>
</svg>
