<svg width="58" height="30" viewBox="0 0 58 30" fill="none" xmlns="http://www.w3.org/2000/svg">
<rect width="58" height="30" rx="15" fill="#837EDE"/>
<path fill-rule="evenodd" clip-rule="evenodd" d="M22.9624 14.3049C26.7205 12.8937 29.2265 11.9633 30.4804 11.5138C34.0604 10.2304 34.8043 10.0074 35.2892 10.0001C35.3959 9.99846 35.6343 10.0212 35.7887 10.1293C35.9192 10.2205 35.9551 10.3437 35.9722 10.4302C35.9894 10.5166 36.0108 10.7136 35.9938 10.8676C35.7998 12.6245 34.9603 16.8881 34.5332 18.8559C34.3525 19.6885 33.9967 19.9677 33.6522 19.995C32.9036 20.0544 32.3351 19.5686 31.6101 19.159C30.4755 18.5179 29.8345 18.1189 28.7332 17.4933C27.4604 16.7704 28.2855 16.3731 29.0108 15.7237C29.2006 15.5538 32.4991 12.9679 32.5629 12.7333C32.5709 12.704 32.5783 12.5946 32.503 12.5369C32.4276 12.4792 32.3163 12.4989 32.236 12.5146C32.1223 12.5369 30.3097 13.5695 26.7984 15.6124C26.2839 15.9169 25.8179 16.0652 25.4004 16.0574C24.9401 16.0489 24.0547 15.8331 23.3965 15.6487C22.5892 15.4225 21.9475 15.3029 22.0034 14.9188C22.0325 14.7187 22.3522 14.5141 22.9624 14.3049Z" fill="white"/>
</svg>
